<?xml version="1.0" encoding="UTF-8"?>
<!DOCTYPE svg PUBLIC "-//W3C//DTD SVG 1.1//EN" "http://www.w3.org/Graphics/SVG/1.1/DTD/svg11.dtd">
<!-- Creator: CorelDRAW X8 -->
<svg xmlns="http://www.w3.org/2000/svg" xml:space="preserve" width="1040px" height="450px" version="1.1" style="shape-rendering:geometricPrecision; text-rendering:geometricPrecision; image-rendering:optimizeQuality; fill-rule:evenodd; clip-rule:evenodd"
viewBox="0 0 1040 450"
 xmlns:xlink="http://www.w3.org/1999/xlink">
 <defs>
  <style type="text/css">
   <![CDATA[
    .str6 {stroke:#4D4D4D;stroke-width:3.99922}
    .str4 {stroke:#90ADB3;stroke-width:3.99922}
    .str1 {stroke:black;stroke-width:0.999214}
    .str2 {stroke:#306F78;stroke-width:0.999214}
    .str3 {stroke:#306F78;stroke-width:2.36221}
    .str5 {stroke:#306F78;stroke-width:0.900001}
    .str0 {stroke:#999999;stroke-width:0.900001}
    .fil2 {fill:none}
    .fil4 {fill:#306F78}
    .fil5 {fill:#333333}
    .fil3 {fill:#3F7881}
    .fil7 {fill:#7CABB1}
    .fil8 {fill:#85A2A8}
    .fil1 {fill:#90ADB3}
    .fil6 {fill:#CCCCCC}
    .fil0 {fill:#333333;fill-rule:nonzero}
   ]]>
  </style>
 </defs>
 <g id="Camada_x0020_1">
  <metadata id="CorelCorpID_0Corel-Layer"/>
  <g id="_1580689831376">
   <polygon class="fil0" points="46,433 38,433 8,387 8,433 0,433 0,373 8,373 38,419 38,373 46,373 "/>
   <path id="1" class="fil0" d="M77 433c-6,0 -11,-2 -15,-6 -4,-3 -5,-9 -5,-15l0 -2c0,-4 0,-8 2,-11 2,-4 4,-6 7,-8 3,-2 6,-3 10,-3 6,0 10,2 13,5 3,4 5,10 5,17l0 3 -30 0c0,4 1,8 4,10 2,3 5,4 9,4 3,0 5,0 7,-1 2,-2 3,-3 5,-5l4 4c-3,6 -9,8 -16,8zm-1 -39c-3,0 -6,1 -8,3 -2,2 -3,6 -4,10l22 0 0 -1c0,-4 -1,-7 -3,-9 -2,-2 -4,-3 -7,-3z"/>
   <path id="2" class="fil0" d="M110 389l0 5c3,-4 8,-6 13,-6 9,0 14,5 14,15l0 30 -7 0 0 -30c0,-3 -1,-5 -2,-7 -2,-1 -4,-2 -7,-2 -3,0 -5,1 -7,2 -1,1 -3,3 -4,5l0 32 -7 0 0 -44 7 0z"/>
   <path id="3" class="fil0" d="M156 394c3,-4 8,-6 13,-6 9,0 14,5 14,15l0 30 -7 0 0 -30c0,-3 -1,-5 -2,-7 -2,-1 -4,-2 -7,-2 -3,0 -5,1 -7,2 -1,1 -3,3 -4,5l0 32 -7 0 0 -63 7 0 0 24z"/>
   <path id="4" class="fil0" d="M222 428c-3,4 -8,5 -13,5 -5,0 -9,-1 -11,-4 -2,-2 -4,-6 -4,-12l0 -28 8 0 0 28c0,7 3,10 8,10 6,0 10,-2 11,-6l0 -32 8 0 0 44 -7 0 0 -5z"/>
   <path id="5" class="fil0" d="M247 389l1 4c3,-3 7,-5 13,-5 6,0 10,2 12,7 2,-2 4,-4 6,-5 2,-2 5,-2 8,-2 10,0 15,5 15,15l0 30 -7 0 0 -30c0,-3 -1,-5 -3,-7 -1,-1 -3,-2 -7,-2 -3,0 -5,1 -7,3 -2,1 -3,4 -3,6l0 30 -8 0 0 -29c0,-7 -3,-10 -9,-10 -5,0 -8,2 -10,6l0 33 -8 0 0 -44 7 0z"/>
   <path id="6" class="fil0" d="M361 433c0,-1 -1,-3 -1,-5 -3,4 -7,5 -12,5 -5,0 -8,-1 -11,-3 -3,-3 -4,-6 -4,-10 0,-4 2,-8 5,-10 4,-3 8,-4 15,-4l7 0 0 -4c0,-2 -1,-4 -2,-6 -2,-1 -4,-2 -7,-2 -3,0 -5,0 -7,2 -2,1 -3,3 -3,5l-7 0c0,-2 1,-5 2,-7 2,-2 4,-3 6,-5 3,-1 6,-1 9,-1 5,0 9,1 12,3 3,3 5,7 5,11l0 20c0,4 0,7 1,10l0 1 -8 0zm-12 -6c2,0 4,-1 6,-2 3,-1 4,-3 5,-5l0 -9 -6 0c-9,0 -14,3 -14,8 0,3 1,5 3,6 1,1 3,2 6,2z"/>
   <path id="7" class="fil0" d="M401 395c-1,0 -3,0 -4,0 -5,0 -8,2 -10,6l0 32 -8 0 0 -44 8 0 0 5c2,-4 6,-6 10,-6 2,0 3,0 4,0l0 7z"/>
   <path id="8" class="fil0" d="M405 410c0,-7 2,-12 5,-16 3,-4 7,-6 13,-6 5,0 9,1 12,5l0 -4 7 0 0 60 -7 0 0 -21c-3,4 -7,5 -13,5 -5,0 -9,-2 -12,-6 -3,-4 -5,-9 -5,-16l0 -1zm8 1c0,5 1,9 3,12 2,3 5,4 8,4 5,0 8,-2 11,-6l0 -21c-3,-4 -6,-6 -11,-6 -3,0 -6,1 -8,4 -2,3 -3,7 -3,13z"/>
   <path id="9" class="fil0" d="M481 428c-3,4 -7,5 -13,5 -4,0 -8,-1 -10,-4 -3,-2 -4,-6 -4,-12l0 -28 8 0 0 28c0,7 2,10 8,10 5,0 9,-2 11,-6l0 -32 8 0 0 44 -7 0 -1 -5z"/>
   <path id="10" class="fil0" d="M508 433l-7 0 0 -44 7 0 0 44zm-8 -56c0,-1 1,-2 1,-3 1,-1 2,-2 4,-2 1,0 2,1 3,2 1,1 1,2 1,3 0,1 0,2 -1,3 -1,1 -2,1 -3,1 -2,0 -3,0 -4,-1 0,-1 -1,-2 -1,-3z"/>
   <polygon id="11" class="fil0" points="535,422 546,389 554,389 538,433 532,433 516,389 524,389 "/>
   <path id="12" class="fil0" d="M558 410c0,-4 1,-8 3,-12 1,-3 4,-6 7,-8 3,-1 6,-2 10,-2 6,0 11,2 15,6 3,4 5,10 5,16l0 1c0,4 -1,8 -2,12 -2,3 -4,6 -7,8 -3,1 -7,2 -11,2 -6,0 -11,-2 -14,-6 -4,-4 -6,-10 -6,-16l0 -1zm8 1c0,5 1,9 3,12 2,3 5,4 9,4 4,0 7,-1 9,-4 3,-3 4,-8 4,-13 0,-5 -1,-9 -4,-12 -2,-3 -5,-4 -9,-4 -4,0 -7,1 -9,4 -2,3 -3,7 -3,13z"/>
   <path id="13" class="fil0" d="M647 433c-6,0 -11,-2 -15,-6 -4,-3 -6,-9 -6,-15l0 -2c0,-4 1,-8 3,-11 2,-4 4,-6 7,-8 3,-2 6,-3 10,-3 5,0 10,2 13,5 3,4 5,10 5,17l0 3 -30 0c0,4 1,8 4,10 2,3 5,4 9,4 3,0 5,0 7,-1 2,-2 3,-3 5,-5l4 4c-4,6 -9,8 -16,8zm-1 -39c-3,0 -6,1 -8,3 -2,2 -3,6 -4,10l22 0 0 -1c0,-4 -1,-7 -3,-9 -2,-2 -4,-3 -7,-3z"/>
   <path id="14" class="fil0" d="M680 389l0 5c3,-4 8,-6 13,-6 9,0 14,5 14,15l0 30 -7 0 0 -30c0,-3 -1,-5 -3,-7 -1,-1 -3,-2 -6,-2 -3,0 -5,1 -7,2 -2,1 -3,3 -4,5l0 32 -8 0 0 -44 8 0z"/>
   <path id="15" class="fil0" d="M736 427c3,0 5,-1 7,-2 2,-2 3,-4 3,-6l8 0c-1,2 -1,5 -3,7 -2,2 -4,4 -6,5 -3,2 -6,2 -9,2 -6,0 -11,-2 -14,-6 -4,-4 -6,-9 -6,-16l0 -1c0,-5 1,-8 3,-12 1,-3 4,-6 7,-8 3,-1 6,-2 10,-2 5,0 9,1 12,4 4,3 5,7 6,12l-8 0c0,-3 -1,-6 -3,-7 -2,-2 -4,-3 -7,-3 -4,0 -7,1 -9,4 -2,3 -3,7 -3,12l0 1c0,5 1,9 3,12 2,3 5,4 9,4z"/>
   <path id="16" class="fil0" d="M760 410c0,-4 1,-8 3,-12 1,-3 4,-6 7,-8 3,-1 6,-2 10,-2 6,0 11,2 15,6 3,4 5,10 5,16l0 1c0,4 -1,8 -2,12 -2,3 -4,6 -7,8 -3,1 -7,2 -11,2 -6,0 -11,-2 -14,-6 -4,-4 -6,-10 -6,-16l0 -1zm8 1c0,5 1,9 3,12 2,3 5,4 9,4 4,0 7,-1 9,-4 2,-3 4,-8 4,-13 0,-5 -2,-9 -4,-12 -2,-3 -5,-4 -9,-4 -4,0 -7,1 -9,4 -2,3 -3,7 -3,13z"/>
   <path id="17" class="fil0" d="M817 389l0 5c3,-4 8,-6 13,-6 9,0 14,5 14,15l0 30 -7 0 0 -30c0,-3 -1,-5 -2,-7 -2,-1 -4,-2 -7,-2 -3,0 -5,1 -7,2 -1,1 -3,3 -4,5l0 32 -7 0 0 -44 7 0z"/>
   <path id="18" class="fil0" d="M866 378l0 11 8 0 0 5 -8 0 0 28c0,1 0,3 1,4 1,0 2,1 4,1 1,0 2,0 3,-1l0 7c-2,0 -4,0 -6,0 -3,0 -5,-1 -7,-3 -2,-2 -3,-5 -3,-8l0 -28 -8 0 0 -5 8 0 0 -11 8 0z"/>
   <path id="19" class="fil0" d="M904 395c-1,0 -2,0 -4,0 -5,0 -8,2 -10,6l0 32 -7 0 0 -44 7 0 0 5c3,-4 6,-6 11,-6 1,0 2,0 3,0l0 7z"/>
   <path id="20" class="fil0" d="M937 433c-1,-1 -1,-3 -2,-5 -3,4 -7,5 -12,5 -4,0 -8,-1 -11,-3 -2,-3 -4,-6 -4,-10 0,-4 2,-8 5,-10 4,-3 9,-4 15,-4l7 0 0 -4c0,-2 0,-4 -2,-6 -2,-1 -4,-2 -7,-2 -3,0 -5,0 -7,2 -2,1 -2,3 -2,5l-8 0c0,-2 1,-5 2,-7 2,-2 4,-3 7,-5 2,-1 5,-1 9,-1 5,0 9,1 11,3 3,3 5,7 5,11l0 20c0,4 0,7 1,10l0 1 -7 0zm-13 -6c2,0 5,-1 7,-2 2,-1 3,-3 4,-5l0 -9 -6 0c-9,0 -13,3 -13,8 0,3 0,5 2,6 2,1 4,2 6,2z"/>
   <path id="21" class="fil0" d="M953 410c0,-7 1,-12 5,-16 3,-4 7,-6 12,-6 5,0 9,1 12,5l0 -23 8 0 0 63 -7 0 0 -5c-3,4 -7,5 -13,5 -5,0 -9,-2 -12,-6 -4,-4 -5,-10 -5,-16l0 -1zm7 1c0,5 1,9 3,12 3,3 5,4 9,4 5,0 8,-2 10,-6l0 -21c-2,-4 -5,-6 -10,-6 -4,0 -6,2 -9,4 -2,3 -3,7 -3,13z"/>
   <path id="22" class="fil0" d="M1000 410c0,-4 1,-8 2,-12 2,-3 4,-6 7,-8 3,-1 7,-2 11,-2 6,0 11,2 14,6 4,4 6,10 6,16l0 1c0,4 -1,8 -3,12 -1,3 -4,6 -7,8 -3,1 -6,2 -10,2 -6,0 -11,-2 -15,-6 -3,-4 -5,-10 -5,-16l0 -1zm7 1c0,5 1,9 4,12 2,3 5,4 9,4 4,0 7,-1 9,-4 2,-3 3,-8 3,-13 0,-5 -1,-9 -3,-12 -2,-3 -6,-4 -9,-4 -4,0 -7,1 -9,4 -3,3 -4,7 -4,13z"/>
   <g>
    <polygon class="fil1 str0" points="577,216 577,292 577,306 588,292 594,283 594,203 579,216 "/>
    <line class="fil2 str1" x1="594" y1="115" x2="432" y2= "115" />
    <line class="fil2 str1" x1="594" y1="189" x2="432" y2= "189" />
    <path class="fil2 str2" d="M486 52c-1,-3 -3,-4 -5,-4 -4,0 -6,3 -6,7 0,3 2,6 6,6 2,0 4,-1 5,-4"/>
    <path class="fil2 str2" d="M530 57c1,3 3,4 6,4 3,0 6,-3 6,-6 0,-4 -3,-7 -6,-7 -3,0 -5,1 -6,4"/>
    <path class="fil2 str2" d="M483 52l51 0m0 5l-51 0"/>
    <path class="fil2 str2" d="M483 52c-2,0 -4,1 -4,3 0,1 2,2 4,2"/>
    <path class="fil2 str2" d="M534 57c2,0 4,-1 4,-2 0,-2 -2,-3 -4,-3"/>
    <path class="fil3" d="M594 115l-162 0c0,25 0,67 0,92 4,0 10,-2 11,-5 3,-8 0,-13 0,-13 49,0 102,0 151,0l0 -74z"/>
    <rect class="fil4 str3" x="444" y="189" width="150" height="13.0949"/>
    <polygon class="fil5 str4" points="447,203 417,216 581,216 594,203 "/>
    <polygon class="fil3" points="400,317 577,317 577,211 400,211 "/>
    <path class="fil2 str2" d="M460 255c-1,-3 -4,-5 -7,-5 -3,0 -7,3 -7,8 0,4 4,8 7,8 3,0 6,-3 7,-5"/>
    <path class="fil2 str2" d="M511 261c1,2 4,5 6,5 4,0 7,-4 7,-8 0,-5 -3,-8 -7,-8 -2,0 -5,2 -6,5"/>
    <path class="fil2 str2" d="M456 255l59 0m0 6l-59 0"/>
    <path class="fil2 str2" d="M456 255c-2,0 -4,1 -4,3 0,1 2,3 4,3"/>
    <path class="fil2 str2" d="M515 261c3,0 4,-2 4,-3 0,-2 -1,-3 -4,-3"/>
    <path class="fil6 str2" d="M515 261c3,0 4,-2 4,-3 0,-2 -1,-3 -4,-3l-4 0 -51 0 -4 0c-2,0 -4,1 -4,3 0,1 2,3 4,3l4 0 51 0 4 0z"/>
    <path class="fil6 str2" d="M456 255l4 0c-1,-3 -4,-5 -7,-5 -3,0 -7,3 -7,8 0,4 4,8 7,8 3,0 6,-3 7,-5l-4 0c-2,0 -4,-2 -4,-3 0,-2 2,-3 4,-3z"/>
    <path class="fil6 str2" d="M517 250c-2,0 -5,2 -6,5l4 0c3,0 4,1 4,3 0,1 -1,3 -4,3l-4 0c1,2 4,5 6,5 4,0 7,-4 7,-8 0,-5 -3,-8 -7,-8z"/>
    <path class="fil3" d="M594 16l-162 -1 0 100 162 0 0 -99zm-58 32c3,0 6,3 6,7 0,3 -3,6 -6,6 -3,0 -5,-1 -6,-4l-44 0c-1,3 -3,4 -5,4 -4,0 -6,-3 -6,-6 0,-4 2,-7 6,-7 2,0 4,1 5,4l44 0c1,-3 3,-4 6,-4z"/>
    <path class="fil7 str2" d="M486 57l44 0 4 0c2,0 4,-1 4,-2 0,-2 -2,-3 -4,-3l-4 0 -44 0 -3 0c-2,0 -4,1 -4,3 0,1 2,2 4,2l3 0z"/>
    <path class="fil7 str2" d="M483 52l3 0c-1,-3 -3,-4 -5,-4 -4,0 -6,3 -6,7 0,3 2,6 6,6 2,0 4,-1 5,-4l-3 0c-2,0 -4,-1 -4,-2 0,-2 2,-3 4,-3z"/>
    <path class="fil7 str2" d="M536 48c-3,0 -5,1 -6,4l4 0c2,0 4,1 4,3 0,1 -2,2 -4,2l-4 0c1,3 3,4 6,4 3,0 6,-3 6,-6 0,-4 -3,-7 -6,-7z"/>
    <polygon class="fil1" points="432,15 594,16 628,1 505,1 "/>
    <path class="fil2 str2" d="M486 132c-1,-3 -3,-4 -5,-4 -4,0 -6,3 -6,6 0,4 2,7 6,7 2,0 4,-1 5,-4"/>
    <path class="fil2 str2" d="M530 137c1,3 3,4 6,4 3,0 6,-3 6,-7 0,-3 -3,-6 -6,-6 -3,0 -5,1 -6,4"/>
    <path class="fil2 str2" d="M483 132l51 0m0 5l-51 0"/>
    <path class="fil2 str2" d="M483 132c-2,0 -4,1 -4,2 0,2 2,3 4,3"/>
    <path class="fil2 str2" d="M534 137c2,0 4,-1 4,-3 0,-1 -2,-2 -4,-2"/>
    <path class="fil7 str2" d="M486 137l44 0 4 0c2,0 4,-1 4,-3 0,-1 -2,-2 -4,-2l-4 0 -44 0 -3 0c-2,0 -4,1 -4,2 0,2 2,3 4,3l3 0z"/>
    <path class="fil7 str5" d="M483 132l3 0c-1,-3 -3,-4 -5,-4 -4,0 -6,3 -6,6 0,4 2,7 6,7 2,0 4,-1 5,-4l-3 0c-2,0 -4,-1 -4,-3 0,-1 2,-2 4,-2z"/>
    <path class="fil7 str5" d="M536 128c-3,0 -5,1 -6,4l4 0c2,0 4,1 4,2 0,2 -2,3 -4,3l-4 0c1,3 3,4 6,4 3,0 6,-3 6,-7 0,-3 -3,-6 -6,-6z"/>
    <polygon class="fil1" points="594,203 594,283 594,292 628,244 628,1 594,16 594,115 594,189 "/>
    <path class="fil8" d="M589 287l-3 5 8 0c0,-33 0,-60 0,-93 -2,2 -2,3 -5,6l0 82z"/>
    <line class="fil2 str6" x1="424" y1="191" x2="380" y2= "146" />
    <line class="fil2 str6" x1="621" y1="152" x2="576" y2= "197" />
    <line class="fil2 str6" x1="543" y1="130" x2="527" y2= "191" />
    <line class="fil2 str6" x1="463" y1="130" x2="479" y2= "191" />
   </g>
  </g>
 </g>
</svg>
